<?xml version="1.0" standalone="no"?>
<!DOCTYPE svg PUBLIC "-//W3C//DTD SVG 20010904//EN"
 "http://www.w3.org/TR/2001/REC-SVG-20010904/DTD/svg10.dtd">
<svg version="1.0" xmlns="http://www.w3.org/2000/svg"
 width="591.000000pt" height="591.000000pt" viewBox="0 0 591.000000 591.000000"
 preserveAspectRatio="xMidYMid meet">
<metadata>
Created by potrace 1.14, written by Peter Selinger 2001-2017
</metadata>
<g transform="translate(0.000000,591.000000) scale(0.100000,-0.100000)"
fill="#000000" stroke="none">
<path d="M2610 5896 c-558 -71 -1078 -290 -1510 -636 -133 -107 -341 -315
-445 -445 -267 -334 -462 -722 -565 -1130 -69 -273 -90 -438 -90 -725 0 -227
17 -408 56 -594 123 -583 387 -1070 808 -1492 302 -302 621 -513 1011 -667
325 -129 632 -192 985 -204 1050 -34 2041 499 2606 1402 218 348 361 747 421
1176 22 155 24 575 4 719 -98 711 -387 1294 -882 1775 -458 446 -978 703
-1636 811 -135 22 -618 28 -763 10z m670 -1006 c177 -547 327 -1003 332 -1012
8 -17 72 -18 1065 -20 l1057 -3 -840 -609 c-461 -335 -846 -616 -856 -625 -15
-15 7 -88 312 -1026 181 -555 328 -1010 327 -1011 -1 -1 -389 280 -862 623
-784 571 -861 624 -880 613 -11 -7 -397 -287 -858 -622 -462 -335 -841 -608
-843 -606 -2 3 143 454 321 1004 179 549 325 1004 325 1009 0 6 -385 289 -854
630 l-854 620 1060 5 1060 5 228 700 c405 1247 431 1327 434 1323 2 -1 149
-451 326 -998z"/>
</g>
</svg>
